<?xml version="1.0" encoding="utf-8"?>
<!-- Generator: Adobe Illustrator 19.0.0, SVG Export Plug-In . SVG Version: 6.00 Build 0)  -->
<svg version="1.1" id="レイヤー_1" xmlns="http://www.w3.org/2000/svg" xmlns:xlink="http://www.w3.org/1999/xlink" x="0px"
	 y="0px" viewBox="0 0 536 64" style="enable-background:new 0 0 536 64;" xml:space="preserve">
<g id="XMLID_3_">
	<path id="XMLID_4_" d="M4.9,7.1h25.7v9.6H14.7v9.4h15.9v9.5H14.7v23.3H4.9V7.1z"/>
	<path id="XMLID_6_" d="M41.2,20.6h9.7V39c0,3.6,0.2,6.1,0.7,7.5c0.5,1.4,1.3,2.5,2.4,3.3c1.1,0.8,2.4,1.2,4,1.2
		c1.6,0,3-0.4,4.1-1.1c1.1-0.8,1.9-1.9,2.5-3.4c0.4-1.1,0.6-3.5,0.6-7.1V20.6h9.6v16.2c0,6.7-0.5,11.3-1.6,13.7
		c-1.3,3-3.2,5.3-5.7,6.9c-2.5,1.6-5.7,2.4-9.6,2.4c-4.2,0-7.6-0.9-10.2-2.8c-2.6-1.9-4.4-4.5-5.5-7.8c-0.8-2.3-1.1-6.5-1.1-12.7
		V20.6z"/>
	<path id="XMLID_8_" d="M85,20.6h8.2v4.8c0.9-1.9,2.1-3.3,3.6-4.3s3.1-1.5,4.9-1.5c1.2,0,2.5,0.3,3.9,1l-3,8.3
		c-1.1-0.6-2.1-0.8-2.8-0.8c-1.5,0-2.7,0.9-3.7,2.7s-1.5,5.4-1.5,10.8l0,1.9v15.5H85V20.6z"/>
	<path id="XMLID_10_" d="M113.2,20.6h9.6v3.9c2.2-1.8,4.1-3.1,5.9-3.8c1.8-0.7,3.6-1.1,5.4-1.1c3.8,0,7,1.3,9.7,4
		c2.2,2.3,3.3,5.6,3.3,10v25.3h-9.5V42.1c0-4.6-0.2-7.6-0.6-9.1s-1.1-2.6-2.1-3.4c-1-0.8-2.3-1.2-3.8-1.2c-1.9,0-3.6,0.6-5,1.9
		s-2.4,3.1-2.9,5.4c-0.3,1.2-0.4,3.8-0.4,7.8v15.3h-9.6V20.6z"/>
	<path id="XMLID_12_" d="M163,4.8c1.7,0,3.1,0.6,4.3,1.8c1.2,1.2,1.8,2.7,1.8,4.4c0,1.7-0.6,3.2-1.8,4.4c-1.2,1.2-2.6,1.8-4.3,1.8
		c-1.7,0-3.2-0.6-4.4-1.8s-1.8-2.7-1.8-4.5c0-1.7,0.6-3.1,1.8-4.3S161.3,4.8,163,4.8z M158.2,20.6h9.6v38.3h-9.6V20.6z"/>
	<path id="XMLID_15_" d="M180.6,6.5h9.6v14.1h5.7v8.3h-5.7v30h-9.6v-30h-4.9v-8.3h4.9V6.5z"/>
	<path id="XMLID_17_" d="M203.8,20.6h9.7V39c0,3.6,0.2,6.1,0.7,7.5c0.5,1.4,1.3,2.5,2.4,3.3c1.1,0.8,2.4,1.2,4,1.2
		c1.6,0,3-0.4,4.1-1.1c1.1-0.8,1.9-1.9,2.5-3.4c0.4-1.1,0.6-3.5,0.6-7.1V20.6h9.6v16.2c0,6.7-0.5,11.3-1.6,13.7
		c-1.3,3-3.2,5.3-5.7,6.9c-2.5,1.6-5.7,2.4-9.6,2.4c-4.2,0-7.6-0.9-10.2-2.8c-2.6-1.9-4.4-4.5-5.5-7.8c-0.8-2.3-1.1-6.5-1.1-12.7
		V20.6z"/>
	<path id="XMLID_19_" d="M247.7,20.6h8.2v4.8c0.9-1.9,2.1-3.3,3.6-4.3s3.1-1.5,4.9-1.5c1.2,0,2.5,0.3,3.9,1l-3,8.3
		c-1.1-0.6-2.1-0.8-2.8-0.8c-1.5,0-2.7,0.9-3.7,2.7s-1.5,5.4-1.5,10.8l0,1.9v15.5h-9.5V20.6z"/>
	<path id="XMLID_21_" d="M314.2,42.5h-30.8c0.4,2.7,1.6,4.9,3.6,6.5c1.9,1.6,4.4,2.4,7.4,2.4c3.6,0,6.7-1.3,9.2-3.8l8.1,3.8
		c-2,2.9-4.4,5-7.2,6.3s-6.2,2.1-10,2.1c-6,0-10.9-1.9-14.7-5.7c-3.8-3.8-5.7-8.5-5.7-14.2c0-5.8,1.9-10.7,5.6-14.5
		c3.8-3.9,8.5-5.8,14.2-5.8c6,0,10.9,1.9,14.7,5.8c3.8,3.9,5.7,8.9,5.7,15.3L314.2,42.5z M304.6,34.9c-0.6-2.1-1.9-3.9-3.8-5.2
		c-1.9-1.3-4-2-6.5-2c-2.7,0-5,0.8-7,2.3c-1.3,0.9-2.4,2.6-3.5,5H304.6z"/>
	<path id="XMLID_24_" d="M326.2,35.3H344v8.9h-17.9V35.3z"/>
	<path id="XMLID_26_" d="M381.4,25.9l-5.9,5.9c-2.4-2.4-4.6-3.6-6.6-3.6c-1.1,0-1.9,0.2-2.5,0.7s-0.9,1-0.9,1.7c0,0.5,0.2,1,0.6,1.4
		c0.4,0.4,1.3,1,2.9,1.8l3.5,1.8c3.7,1.8,6.2,3.7,7.6,5.6s2.1,4.1,2.1,6.7c0,3.4-1.2,6.2-3.7,8.5c-2.5,2.3-5.8,3.4-10,3.4
		c-5.6,0-10-2.2-13.4-6.5l5.9-6.4c1.1,1.3,2.4,2.4,4,3.2s2.9,1.2,4,1.2c1.3,0,2.3-0.3,3.1-0.9c0.8-0.6,1.2-1.3,1.2-2.1
		c0-1.5-1.4-2.9-4.2-4.3l-3.2-1.6c-6.2-3.1-9.3-7-9.3-11.7c0-3,1.2-5.6,3.5-7.8s5.3-3.2,8.9-3.2c2.5,0,4.8,0.5,7,1.6
		S379.9,23.9,381.4,25.9z"/>
	<path id="XMLID_28_" d="M393.7,6.5h9.6v14.1h5.7v8.3h-5.7v30h-9.6v-30h-4.9v-8.3h4.9V6.5z"/>
	<path id="XMLID_30_" d="M434.9,19.6c3.6,0,7,0.9,10.2,2.7c3.2,1.8,5.7,4.3,7.4,7.3s2.7,6.4,2.7,10c0,3.6-0.9,7-2.7,10.1
		c-1.8,3.1-4.2,5.6-7.3,7.4s-6.5,2.7-10.2,2.7c-5.5,0-10.2-2-14-5.9s-5.8-8.6-5.8-14.2c0-6,2.2-11,6.6-14.9
		C425.5,21.3,430,19.6,434.9,19.6z M435.1,28.6c-3,0-5.5,1-7.4,3.1c-2,2.1-3,4.7-3,8c0,3.3,1,6,2.9,8.1c2,2.1,4.4,3.1,7.4,3.1
		s5.5-1,7.5-3.1c2-2.1,3-4.8,3-8.1c0-3.3-1-5.9-2.9-8C440.7,29.7,438.2,28.6,435.1,28.6z"/>
	<path id="XMLID_33_" d="M463.7,20.6h8.2v4.8c0.9-1.9,2.1-3.3,3.6-4.3s3.1-1.5,4.9-1.5c1.2,0,2.5,0.3,3.9,1l-3,8.3
		c-1.1-0.6-2.1-0.8-2.8-0.8c-1.5,0-2.7,0.9-3.7,2.7s-1.5,5.4-1.5,10.8l0,1.9v15.5h-9.5V20.6z"/>
	<path id="XMLID_35_" d="M530.2,42.5h-30.8c0.4,2.7,1.6,4.9,3.6,6.5c1.9,1.6,4.4,2.4,7.4,2.4c3.6,0,6.7-1.3,9.2-3.8l8.1,3.8
		c-2,2.9-4.4,5-7.2,6.3s-6.2,2.1-10,2.1c-6,0-10.9-1.9-14.7-5.7c-3.8-3.8-5.7-8.5-5.7-14.2c0-5.8,1.9-10.7,5.6-14.5
		c3.8-3.9,8.5-5.8,14.2-5.8c6,0,10.9,1.9,14.7,5.8c3.8,3.9,5.7,8.9,5.7,15.3L530.2,42.5z M520.6,34.9c-0.6-2.1-1.9-3.9-3.8-5.2
		c-1.9-1.3-4-2-6.5-2c-2.7,0-5,0.8-7,2.3c-1.3,0.9-2.4,2.6-3.5,5H520.6z"/>
</g>
</svg>
