<?xml version="1.0" encoding="utf-8"?>
<!-- Generator: Adobe Illustrator 19.0.0, SVG Export Plug-In . SVG Version: 6.00 Build 0)  -->
<svg version="1.1" id="レイヤー_1" xmlns="http://www.w3.org/2000/svg" xmlns:xlink="http://www.w3.org/1999/xlink" x="0px"
	 y="0px" viewBox="0 0 701 59" style="enable-background:new 0 0 701 59;" xml:space="preserve">
<g id="XMLID_3_">
	<path id="XMLID_4_" d="M10.9,14.1v12.8h14v6.2h-14v21.1H4.2V7.9h24.2v6.2H10.9z"/>
	<path id="XMLID_6_" d="M76.5,20v34.1h-6.4v-3.9c-3.1,3-7.1,4.5-12,4.5c-3.6,0-6.4-1.1-8.6-3.2c-2.1-2.1-3.2-5-3.2-8.5V20h6.4v23
		c0,4.1,2.3,6.1,6.8,6.1c3.2,0,5.8-1,7.8-3.1c1.9-1.9,2.8-4.5,2.8-8V20H76.5z"/>
	<path id="XMLID_8_" d="M98,20h6.4v3.9c2.5-3,5.6-4.5,9.3-4.5c3,0,5.5,1,7.4,2.9c1.9,1.9,2.9,4.4,2.9,7.4c0,0.2,0,0.7-0.1,1.3h-6.6
		c0-0.4,0-0.7,0-0.9c0-1.6-0.4-2.9-1.3-4c-0.9-1-2-1.5-3.3-1.5c-2.5,0-4.6,1.2-6.4,3.5c-1.3,1.7-1.9,4.3-1.9,7.7v18.4H98V20z"/>
	<path id="XMLID_10_" d="M141.7,20h6.4v3.9c3-3,6.7-4.5,11.1-4.5c3.9,0,7,1.1,9.3,3.4c2.3,2.3,3.5,5.3,3.5,9.1v22.2h-6.4V31.4
		c0-2-0.6-3.6-1.9-4.7c-1.2-1.1-3-1.7-5.2-1.7c-3.1,0-5.6,1-7.5,2.9c-1.9,1.9-2.9,4.5-2.9,7.7v18.6h-6.4V20z"/>
	<path id="XMLID_12_" d="M192.7,20h17.7v34.1h-6.8V26.4h-11V20z M200.8,4.4h9.6v8.5h-9.6V4.4z"/>
	<path id="XMLID_15_" d="M252,9.7v9.8h12.8v5.6H252V43c0,1.9,0.4,3.5,1.3,4.5c0.9,1.1,2.1,1.6,3.7,1.6c1.2,0,2.5-0.3,4-0.8
		s2.8-1.2,3.8-1.9v6.3c-2,1.3-4.7,2-8,2c-3.7,0-6.4-1-8.3-3.1c-1.9-2.1-2.9-5.2-2.9-9.2V25.1h-7.1v-5.6h7.1v-8.1L252,9.7z"/>
	<path id="XMLID_17_" d="M314.8,20v34.1h-6.4v-3.9c-3.1,3-7.1,4.5-12,4.5c-3.6,0-6.4-1.1-8.6-3.2c-2.1-2.1-3.2-5-3.2-8.5V20h6.4v23
		c0,4.1,2.3,6.1,6.8,6.1c3.2,0,5.8-1,7.8-3.1c1.9-1.9,2.8-4.5,2.8-8V20H314.8z"/>
	<path id="XMLID_19_" d="M336.3,20h6.4v3.9c2.5-3,5.6-4.5,9.3-4.5c3,0,5.5,1,7.4,2.9c1.9,1.9,2.9,4.4,2.9,7.4c0,0.2,0,0.7-0.1,1.3
		h-6.6c0-0.4,0-0.7,0-0.9c0-1.6-0.4-2.9-1.3-4c-0.9-1-2-1.5-3.3-1.5c-2.5,0-4.6,1.2-6.4,3.5c-1.3,1.7-1.9,4.3-1.9,7.7v18.4h-6.4V20z
		"/>
	<path id="XMLID_21_" d="M410.4,38.4h-23.6l0,1.2c0,2.8,0.9,5.1,2.8,6.8c1.9,1.8,4.3,2.7,7.3,2.7c2.5,0,4.3-0.8,5.3-2.4h7
		c-0.2,2.6-1.5,4.6-3.7,5.9s-5.3,2.1-9.1,2.1c-5.2,0-9.3-1.6-12.2-4.7c-2.9-3.1-4.3-7.5-4.3-13.1c0-4.7,1.2-8.8,3.7-12.2
		c2.6-3.6,6.6-5.4,12-5.4c4.9,0,8.6,1.4,11.1,4.3s3.8,7.1,3.8,12.7C410.5,36.8,410.5,37.5,410.4,38.4z M403.7,32.9
		c0-2.3-0.7-4.2-2.2-5.7S398,25,395.5,25c-2.4,0-4.4,0.7-6,2.1c-1.6,1.4-2.5,3.3-2.8,5.7H403.7z"/>
	<path id="XMLID_24_" d="M434.9,32.8h15.8v7.8h-15.8V32.8z"/>
	<path id="XMLID_26_" d="M503.5,28.6h-6.6c-0.3-2.6-2.3-4-6.2-4c-4.6,0-6.9,1.4-6.9,4.3c0,2.4,1.6,3.9,4.8,4.5
		c6.2,1.2,10.2,2.3,11.9,3.3c3.1,1.8,4.6,4.4,4.6,8c0,3.2-1.3,5.7-4,7.5c-2.7,1.8-6.5,2.7-11.4,2.7c-4.3,0-7.7-0.8-10-2.4
		c-2.4-1.6-3.6-3.9-3.6-6.9h6.7c0.2,1.7,0.9,2.8,2.1,3.5c1.2,0.7,3,1,5.6,1c2.4,0,4.4-0.5,5.9-1.4s2.3-2.1,2.3-3.6
		c0-1.5-0.4-2.5-1.2-3.2c-0.8-0.7-2.4-1.2-4.8-1.7c-5.8-1.1-9.8-2.4-12-4s-3.2-3.9-3.2-7c0-6.6,4.9-9.8,14.6-9.8
		c3.7,0,6.6,0.7,8.6,2.1c2,1.4,3.1,3.4,3.1,6C503.5,27.7,503.5,28.1,503.5,28.6z"/>
	<path id="XMLID_28_" d="M538,9.7v9.8h12.8v5.6H538V43c0,1.9,0.4,3.5,1.3,4.5c0.9,1.1,2.1,1.6,3.7,1.6c1.2,0,2.5-0.3,4-0.8
		s2.8-1.2,3.8-1.9v6.3c-2,1.3-4.7,2-8,2c-3.7,0-6.4-1-8.3-3.1c-1.9-2.1-2.9-5.2-2.9-9.2V25.1h-7.1v-5.6h7.1v-8.1L538,9.7z"/>
	<path id="XMLID_30_" d="M585.8,19.4c5.5,0,9.6,1.6,12.4,4.9c1.3,1.5,2.3,3.4,3.1,5.8s1.2,4.6,1.2,6.9c0,5.2-1.6,9.4-4.7,12.7
		s-7.1,5-12,5c-5,0-9.1-1.6-12.1-4.9c-3.1-3.3-4.6-7.6-4.6-12.9c0-5.3,1.5-9.5,4.6-12.7C576.7,21,580.8,19.4,585.8,19.4z
		 M586.1,24.3c-3.2,0-5.8,1.1-7.7,3.4c-1.9,2.3-2.8,5.3-2.8,9.2c0,3.9,0.9,7.1,2.7,9.4c1.8,2.3,4.3,3.4,7.5,3.4
		c3.1,0,5.6-1.1,7.4-3.4s2.8-5.3,2.8-9.1c0-4.1-0.9-7.2-2.6-9.5S589.3,24.3,586.1,24.3z"/>
	<path id="XMLID_33_" d="M622.3,20h6.4v3.9c2.5-3,5.6-4.5,9.3-4.5c3,0,5.5,1,7.4,2.9c1.9,1.9,2.9,4.4,2.9,7.4c0,0.2,0,0.7-0.1,1.3
		h-6.6c0-0.4,0-0.7,0-0.9c0-1.6-0.4-2.9-1.3-4s-2-1.5-3.3-1.5c-2.5,0-4.6,1.2-6.4,3.5c-1.3,1.7-1.9,4.3-1.9,7.7v18.4h-6.4V20z"/>
	<path id="XMLID_35_" d="M696.4,38.4h-23.6l0,1.2c0,2.8,0.9,5.1,2.8,6.8c1.9,1.8,4.3,2.7,7.3,2.7c2.5,0,4.3-0.8,5.3-2.4h7
		c-0.2,2.6-1.5,4.6-3.7,5.9s-5.3,2.1-9.1,2.1c-5.2,0-9.3-1.6-12.2-4.7c-2.9-3.1-4.3-7.5-4.3-13.1c0-4.7,1.2-8.8,3.7-12.2
		c2.6-3.6,6.6-5.4,12-5.4c4.9,0,8.6,1.4,11.1,4.3s3.8,7.1,3.8,12.7C696.5,36.8,696.5,37.5,696.4,38.4z M689.7,32.9
		c0-2.3-0.7-4.2-2.2-5.7S684,25,681.5,25c-2.4,0-4.4,0.7-6,2.1c-1.6,1.4-2.5,3.3-2.8,5.7H689.7z"/>
</g>
</svg>
